<?xml version="1.0" encoding="UTF-8" standalone="no"?>
<!-- Created with Inkscape (http://www.inkscape.org/) -->

<svg
   width="66.304016mm"
   height="63.491707mm"
   viewBox="0 0 66.304016 63.491707"
   version="1.1"
   id="svg21"
   inkscape:version="1.2.1 (9c6d41e410, 2022-07-14, custom)"
   sodipodi:docname="arriw.svg"
   xmlns:inkscape="http://www.inkscape.org/namespaces/inkscape"
   xmlns:sodipodi="http://sodipodi.sourceforge.net/DTD/sodipodi-0.dtd"
   xmlns="http://www.w3.org/2000/svg"
   xmlns:svg="http://www.w3.org/2000/svg">
  <sodipodi:namedview
     id="namedview23"
     pagecolor="#ffffff"
     bordercolor="#000000"
     borderopacity="0.25"
     inkscape:showpageshadow="false"
     inkscape:pageopacity="0.0"
     inkscape:pagecheckerboard="0"
     inkscape:deskcolor="#d1d1d1"
     inkscape:document-units="mm"
     showgrid="false"
     inkscape:zoom="1.9919472"
     inkscape:cx="442.78281"
     inkscape:cy="473.90813"
     inkscape:window-width="1346"
     inkscape:window-height="723"
     inkscape:window-x="9"
     inkscape:window-y="9"
     inkscape:window-maximized="1"
     inkscape:current-layer="layer2"
     showborder="false" />
  <defs
     id="defs18">
    <inkscape:path-effect
       effect="spiro"
       id="path-effect3901"
       is_visible="true"
       lpeversion="1" />
    <marker
       style="overflow:visible"
       id="RoundedArrow"
       refX="0"
       refY="0"
       orient="auto-start-reverse"
       inkscape:stockid="RoundedArrow"
       markerWidth="6.1347523"
       markerHeight="5.9304953"
       viewBox="0 0 6.1347524 5.9304951"
       inkscape:isstock="true"
       inkscape:collect="always"
       preserveAspectRatio="xMidYMid">
      <path
         transform="scale(0.7)"
         d="m -0.21114562,-4.1055728 6.42229122,3.21114561 a 1,1 90 0 1 0,1.78885438 L -0.21114562,4.1055728 A 1.236068,1.236068 31.717474 0 1 -2,3 v -6 a 1.236068,1.236068 148.28253 0 1 1.78885438,-1.1055728 z"
         style="fill:context-stroke;fill-rule:evenodd;stroke:none"
         id="path1367" />
    </marker>
  </defs>
  <a
     id="a5342"
     transform="translate(-80.919319,-91.30169)">
    <g
       id="layer3"
       inkscape:label="Layer 3">
      <g
         inkscape:groupmode="layer"
         id="layer2"
         inkscape:label="Layer 2"
         transform="matrix(1,0,0,-1,0,246.09509)">
        <ellipse
           style="fill:#ff6600;stroke-width:5.16501;stroke-dasharray:none"
           id="path4986"
           cx="114.07133"
           cy="123.04755"
           rx="33.152008"
           ry="31.745853" />
      </g>
      <g
         inkscape:label="Layer 1"
         id="layer1"
         inkscape:groupmode="layer">
        <ellipse
           style="fill:#e6e6e6;stroke-width:0.264583"
           id="path1358"
           cx="114.23599"
           cy="123.0197"
           rx="30.284954"
           ry="28.483311" />
        <path
           style="fill:#e6e6e6;stroke-width:0.264583"
           d="m 113.38598,102.72982 c 0.15489,39.878 0,0 0,0 z"
           id="path1362" />
        <path
           style="fill:#e6e6e6;stroke-width:3.365;stroke-dasharray:none"
           d="M 113.55239,103.77051 98.170983,121.67603 127.32767,121.243 Z"
           id="path1364" />
        <path
           style="fill:#ff6600;stroke-width:0.565;stroke-dasharray:none;marker-start:url(#RoundedArrow)"
           d="m 113.64494,102.08434 c -0.78523,42.46559 -0.82669,42.5184 -0.82669,42.5184"
           id="path3516" />
        <path
           style="fill:#ff6600;stroke-width:3.165;stroke-dasharray:none"
           d="m 113.70074,103.1916 c -0.0105,40.03353 -0.12481,41.02701 -0.12481,41.02701 z"
           id="path3897" />
        <path
           style="fill:#ff6600;stroke-width:5.16501;stroke-dasharray:none"
           d="m 113.86541,102.7384 c -4.89958,3.00859 -9.11202,7.12894 -12.22817,11.96082 -0.22953,0.3559 -0.45512,0.71958 -0.59257,1.12015 -0.13744,0.40057 -0.1813,0.84597 -0.0439,1.24657 0.1307,0.38115 0.42089,0.69841 0.7735,0.8934 0.35262,0.19498 0.7637,0.27225 1.16622,0.25415 0.80506,-0.0362 1.54747,-0.4357 2.21739,-0.8836 0.66993,-0.4479 1.3089,-0.95851 2.05342,-1.2669 0.37226,-0.1542 0.7698,-0.25567 1.17268,-0.26232 0.40287,-0.007 0.81168,0.0848 1.15625,0.29364 0.49224,0.29838 0.82083,0.81444 1.0095,1.35825 0.18866,0.54381 0.25262,1.12147 0.32549,1.69245 0.57734,4.52345 1.78891,8.95741 2.17849,13.50088 0.1948,2.27174 0.18136,4.57246 -0.22007,6.81692 -0.40142,2.24446 -1.2002,4.43542 -2.48895,6.31634 -0.18365,0.26804 -0.37886,0.53298 -0.49797,0.83528 -0.0596,0.15115 -0.0994,0.31107 -0.10584,0.4734 -0.006,0.16233 0.0213,0.32727 0.0911,0.47394 0.0715,0.15018 0.18569,0.27801 0.31947,0.37687 0.13379,0.0989 0.28685,0.16963 0.44525,0.22044 0.31679,0.10162 0.65244,0.1244 0.98138,0.17422 1.17386,0.1778 2.26956,0.70205 3.43464,0.93042 0.58254,0.11418 1.18728,0.15284 1.7689,0.034 0.58161,-0.11881 1.14027,-0.40464 1.52109,-0.86002 0.3895,-0.46576 0.56808,-1.06873 0.71214,-1.65855 1.2351,-5.05693 0.6238,-10.3688 -0.21537,-15.50629 -0.83916,-5.13748 -1.90378,-10.30683 -1.55326,-15.50059 0.009,-0.12888 0.0184,-0.25855 0.0511,-0.38352 0.0693,-0.26471 0.24213,-0.49767 0.46514,-0.6562 0.22301,-0.15853 0.49368,-0.24453 0.76668,-0.2629 0.54601,-0.0367 1.08,0.1897 1.53291,0.49685 0.45291,0.30715 0.84445,0.69504 1.27186,1.03678 0.42742,0.34175 0.90802,0.64424 1.44751,0.73599 0.34494,0.0587 0.70362,0.0276 1.03641,-0.0804 0.33279,-0.10806 0.63955,-0.29228 0.89784,-0.52831 0.51659,-0.47205 0.82926,-1.14366 0.93081,-1.83604 0.10155,-0.69238 0.002,-1.40431 -0.21493,-2.06964 -0.21688,-0.66533 -0.54819,-1.288 -0.91504,-1.88392 -2.34853,-3.81506 -6.2799,-6.62121 -10.65108,-7.60257 z"
           id="path3899"
           inkscape:path-effect="#path-effect3901"
           inkscape:original-d="m 113.86541,102.7384 c -3.55063,-2.53445 -8.15185,7.97415 -12.22817,11.96082 -4.07632,3.98668 -0.42407,1.57808 -0.6365,2.36672 -0.21244,0.78864 5.69324,-0.64749 8.53946,-0.97163 2.84623,-0.32414 0.89026,2.03407 1.33499,3.0507 0.44473,1.01664 -0.35342,17.75636 -0.53053,26.63414 -0.17711,8.87779 -0.34153,1.18868 -0.51269,1.78262 -0.17116,0.59394 1.16433,0.51462 1.7461,0.77153 0.58177,0.25691 4.48335,0.0699 6.72463,0.10444 2.24127,0.0345 0.47502,-1.10544 0.71214,-1.65855 0.23712,-0.55311 -1.17883,-20.67099 -1.76863,-31.00688 -0.58981,-10.3359 0.0343,-0.25542 0.0511,-0.38352 0.0168,-0.1281 3.65633,0.90062 5.4841,1.35052 1.82777,0.44991 1.15699,-4.26529 1.73509,-6.39834 0.5781,-2.13304 -7.10046,-5.06811 -10.65108,-7.60257 z" />
        <path
           style="fill:#ffff00;stroke-width:2.59294;stroke-dasharray:none"
           d="m 111.76678,151.29701 c -5.64167,-0.38225 -11.33394,-2.42329 -15.916311,-5.70703 -9.669486,-6.92917 -13.966203,-18.47491 -11.014643,-29.59753 2.784842,-10.49436 11.92712,-18.700157 23.234934,-20.854899 4.49456,-0.856454 9.7368,-0.694389 14.07987,0.435282 5.31174,1.38163 10.22855,4.183856 14.01267,7.986207 9.39348,9.43874 10.83889,23.50671 3.54472,34.50023 -5.09807,7.68363 -13.79014,12.58317 -23.49441,13.24333 -2.15407,0.14653 -2.20251,0.14647 -4.44683,-0.006 z m 5.97393,-2.42825 c 0.68947,-0.47815 1.03639,-1.18506 1.35944,-2.77007 0.3848,-1.88797 0.52422,-3.42195 0.52254,-5.74921 -0.002,-3.16122 -0.25584,-5.40359 -1.38932,-12.28644 -0.85278,-5.17839 -1.04188,-6.98581 -1.05382,-10.07243 l -0.0105,-2.70055 0.43378,-0.38766 c 0.78165,-0.69855 1.59779,-0.49167 3.21895,0.81594 1.38407,1.11637 2.18171,1.308 3.2639,0.78412 1.80753,-0.87501 2.01449,-3.51016 0.47722,-6.07641 -1.60198,-2.67431 -4.14741,-5.01174 -7.03369,-6.45898 -1.10162,-0.55237 -3.16403,-1.27389 -3.64133,-1.27389 -0.37889,0 -2.57999,1.46584 -4.35464,2.90001 -3.15843,2.55246 -6.98368,6.93001 -8.42258,9.63867 -0.87891,1.65449 0.0541,3.14872 1.85039,2.96333 0.79074,-0.0816 1.44442,-0.38668 2.83015,-1.32078 1.2021,-0.81032 1.9689,-1.08597 2.76987,-0.99569 1.37784,0.1553 1.75201,0.855 2.2894,4.28114 0.21772,1.38804 0.63508,3.78885 0.92749,5.33515 1.0085,5.33326 1.11858,6.43598 1.02654,10.2834 -0.0758,3.16912 -0.10749,3.50223 -0.46937,4.93513 -0.41526,1.64423 -1.13275,3.31444 -2.06939,4.81722 -0.67695,1.08612 -0.79857,1.47272 -0.61511,1.95526 0.17617,0.46336 0.48495,0.61357 1.85733,0.90351 0.62974,0.13304 1.62317,0.39456 2.2076,0.58114 0.86785,0.27706 1.28388,0.33365 2.2698,0.30872 1.08591,-0.0275 1.26226,-0.0687 1.75528,-0.41063 z"
           id="path4101" />
      </g>
    </g>
  </a>
</svg>
